<svg xmlns="http://www.w3.org/2000/svg" viewBox="0 0 119.3 56.49"><defs><style>.cls-1{fill:#010300;}</style></defs><title>arrow-back_1</title><g id="Layer_2" data-name="Layer 2"><g id="OBJECTS"><path class="cls-1" d="M7.34,5.45A57.2,57.2,0,0,1,37.78,5,54.28,54.28,0,0,1,52,10.81a44.89,44.89,0,0,1,11.91,9.76c3.3,4,5.84,8.86,6.13,14.2a22.21,22.21,0,0,1-4.62,14.85,18.62,18.62,0,0,1-6.16,5.08,17.4,17.4,0,0,1-7.85,1.79,18.68,18.68,0,0,1-14.33-6.61,15.71,15.71,0,0,1-3.24-7.55,20.57,20.57,0,0,1,.46-8.09,26.43,26.43,0,0,1,3.14-7.39,40,40,0,0,1,4.8-6.27c1.77-1.92,3.66-3.69,5.56-5.41a75.22,75.22,0,0,1,6-4.93A55.26,55.26,0,0,1,67.54,2.77,45.56,45.56,0,0,1,83,0,52.29,52.29,0,0,1,98.45,2.42a71.56,71.56,0,0,1,7.27,2.77,28.54,28.54,0,0,1,6.72,4.24,21.94,21.94,0,0,1,5.06,6.15,14,14,0,0,1,1.76,7.79.72.72,0,0,1-1.43-.06,13.14,13.14,0,0,0-2-6.74,20,20,0,0,0-4.88-5.26,26.08,26.08,0,0,0-6.28-3.58,69.55,69.55,0,0,0-7-2.43A51.6,51.6,0,0,0,83,3.29,44.2,44.2,0,0,0,68.68,5.92a51.92,51.92,0,0,0-13,7,67.81,67.81,0,0,0-5.79,4.69c-1.87,1.67-3.7,3.37-5.39,5.16-3.39,3.56-6.24,7.61-7.46,12.23a17.63,17.63,0,0,0-.54,7,13,13,0,0,0,2.56,6.33,16.32,16.32,0,0,0,12.34,6,15.24,15.24,0,0,0,6.89-1.41,16.53,16.53,0,0,0,5.57-4.44,20.32,20.32,0,0,0,4.42-13.54,22.64,22.64,0,0,0-5.58-13.33,43.82,43.82,0,0,0-11.49-9.47A53.1,53.1,0,0,0,37.43,6.31a53.95,53.95,0,0,0-29.67.5h0a.7.7,0,0,1-.89-.47.71.71,0,0,1,.47-.89Z"/><path class="cls-1" d="M7.38,11.34a17.27,17.27,0,0,0-3.16-.9A18.87,18.87,0,0,0,1,10.12,1,1,0,0,1,.16,8.63l.2-.29C1.12,7.22,1.81,6.06,2.62,5A10.07,10.07,0,0,1,5.46,2.17L7.37,3.74a5.1,5.1,0,0,1-1.09.46.87.87,0,0,1-1.06-.62.69.69,0,0,1,0-.32,4.06,4.06,0,0,1,.3-1.14,1.15,1.15,0,0,1,2.17.74l-.26.83A9,9,0,0,1,5.1,7.14,29.21,29.21,0,0,1,1.9,9.81L1.31,8c1.09.37,2.17.72,3.25,1.05s2.15.64,3.25.9a.71.71,0,1,1-.33,1.39Z"/></g></g></svg>